{"title":"RIDDICK 2013 CAMRip Xvid READNFO!!!-INFERNO","uid":8900038,"size":1563514047,"categoryP":"video","categoryS":"movies","magnet":"?xt=urn:btih:28f03444434655d7e7ef5bcde29957c2153579a2&amp;dn=RIDDICK+2013+CAMRip+Xvid+READNFO%21%21%21-INFERNO&amp;tr=udp%3A%2F%2Ftracker.openbittorrent.com%3A80&amp;tr=udp%3A%2F%2Fopen.demonii.com%3A1337&amp;tr=udp%3A%2F%2Ftracker.coppersurfer.tk%3A6969&amp;tr=udp%3A%2F%2Fexodus.desync.com%3A6969","seeders":4,"leechers":0,"uploader":"TeX","files":4,"time":1378789812,"description":"[img]http://lookpic.com/O/i2/100/LkDgNAq.jpeg[/img]\n\n::::::::::: :::: ::: :::::::::: :::::::::: ::::::::: :::: ::: :::::::: \n :+: :+:+: :+: :+: :+: :+: :+: :+:+: :+: :+: :+: \n +:+ :+:+:+ +:+ +:+ +:+ +:+ +:+ :+:+:+ +:+ +:+ +:+ \n +#+ +#+ +:+ +#+ :#::+::# +#++:++# +#++:++#: +#+ +:+ +#+ +#+ +:+ \n +#+ +#+ +#+#+# +#+ +#+ +#+ +#+ +#+ +#+#+# +#+ +#+ \n #+# #+# #+#+# #+# #+# #+# #+# #+# #+#+# #+# #+# \n########### ### #### ### ########## ### ### ### #### ######## \n\n\nSOURCE:MAXP THANKS :)\n\nREAD NFO!!! WE ALL KNOW BY NOW THAT THERE IS MOVEMENT AND FOCUS ISSUE THAT CAN'T BE FIXED AND ALTHO FOCUS YOU CAN'T FIX YOU CAN DO THE BEST YOU CAN WITH BORDERS AND MOVEMENT SO HERE IS WHAT WE DID...\n\nROTATED BY-1.100 AS YOU CAN SEE IN THE FIRST SCREEN COMPARISON THAT IT SEEMS A BIT OFF AND USED BICUBIC FILTER TO SMOOTH THE JAGED EDGES.\n\nNEXT WE CROPPED TOP BY 22,LEFT BY 4,RIGHT BY 12 AND BOTTOM BY 6 BUT THERE IS STILL MOVEMENT!!!(ALSO BEEN WORKING ON A V2 WHICH WILL BE CROPPED MORE IF WE DECIDE TO UP IT?)\n\nOK ADJUST HUE AS IT LOOKED A LITTLE GREEN TO ME BUT THE COLORS BOUNCE SO WAS HARD TO FIND A NICE BALANCE.\nADJUSTED CONTRAST,SAT AND RGB A TAD BUT YOU KNOW THE DEAL :wink:\n\nNEXT USED THE (EF) VAUGE DENOISER THEN LIGHTLY SMOOTHED IT OUT DO TO THE PIXEL BREAK UP,ADD SOME SHARPNESS BACK IN AND CHANGED THE AUDIO TO MP3 128 THE END :lol:\n\nTO ALL THE PEOPLE OUT THERE YOU KNOW THERE IS A DOZEN COPIES AND SOME OF MY FELLOW ENCODERS OUT THERE HAVE DONE A GREAT JOB(MILLENIUM,UNIQUE AND JUSTICE) TO NAME A FEW HAVE DONE A GREAT JOB ON THIS SO IT ALL COMES DOWN TO PERSONAL PREFERENCE :)\n\n2 SAMPLES INCLUDED SO THE CHOICE IS YOURS:wink:\nIF YOU FEEL SOMEONE ELSE HAS DONE A BETTER JOB STAY WITH THERE COPY AND DON'T COMMENT ON MINE,SIMPLE:wink:\n\nALOT OF WORK GOES IN TO EACH GROUPS ENCODES(GROUPS MENTIONED ABOVE TO NAME A FEW:wink: SO UNLESS YOUR GONNA ENCODE AND UPLOAD ONE HERE YOURSELF PLEASE SHOW US ALL A LITTLE RESPECT FOR TRYING TO BRING YOU THE VERY BEST WE CAN FOR FREE! \n\n\nRiddick 2013\n\n\nLeft for dead on a sun-scorched planet, Riddick finds himself up against an alien race of predators. Activating an emergency beacon alerts two ships: one carrying a new breed of mercenary, the other captained by a man from Riddick's past.\n\n\nDirector:\nDavid Twohy\nWriters:\nDavid Twohy, Jim Wheat\nStars:\nVin Diesel, Karl Urban, Katee Sackhoff  &lt;a href=&quot;\nhttp://www.imdb.com/title/tt1411250/?ref_=hm_cht_t1&quot; rel=&quot;nofollow&quot; target=&quot;_NEW&quot;&gt;\nhttp://www.imdb.com/title/tt1411250/?ref_=hm_cht_t1&lt;/a&gt;\n\nomplete name : RIDDICK-INF\nFormat : AVI\nFormat/Info : Audio Video Interleave\nFile size : 1.44 GiB\nDuration : 1h 51mn\nOverall bit rate : 1 839 Kbps\nWriting library : VirtualDub build 32842/release\n\nVideo\nID : 0\nFormat : MPEG-4 Visual\nFormat profile : Advanced Simple@L5\nFormat settings, BVOP : 2\nFormat settings, QPel : No\nFormat settings, GMC : No warppoints\nFormat settings, Matrix : Default (H.263)\nMuxing mode : Packed bitstream\nCodec ID : XVID\nCodec ID/Hint : XviD\nDuration : 1h 51mn\nBit rate : 1 699 Kbps\nWidth : 720 pixels\nHeight : 400 pixels\nDisplay aspect ratio : 16:9\nFrame rate : 29.970 fps\nColor space : YUV\nChroma subsampling : 4:2:0\nBit depth : 8 bits\nScan type : Progressive\nCompression mode : Lossy\nBits/(Pixel*Frame) : 0.197\nStream size : 1.33 GiB (92%)\nWriting library : XviD 64\n\nAudio\nID : 1\nFormat : MPEG Audio\nFormat version : Version 1\nFormat profile : Layer 3\nMode : Joint stereo\nMode extension : MS Stereo\nCodec ID : 55\nCodec ID/Hint : MP3\nDuration : 1h 51mn\nBit rate mode : Constant\nBit rate : 128 Kbps\nChannel(s) : 2 channels\nSampling rate : 48.0 KHz\nCompression mode : Lossy\nStream size : 102 MiB (7%)\nAlignment : Split accross interleaves\nInterleave, duration : 33 ms (1.00 video frame)\nInterleave, preload duration : 500 ms\n\n[img]http://ultraimg.com/images/KbEGn.png[/img]\n[img]http://ultraimg.com/images/ibpZ4.png[/img]\n[img]http://ultraimg.com/images/QKmV6.jpg[/img]\n[img]http://lookpic.com/O/i2/1186/IFtepcE1.png[/img]","torrent":{"xt":"urn:btih:28f03444434655d7e7ef5bcde29957c2153579a2","amp;dn":"RIDDICK+2013+CAMRip+Xvid+READNFO%21%21%21-INFERNO","amp;tr":["udp%3A%2F%2Ftracker.openbittorrent.com%3A80","udp%3A%2F%2Fopen.demonii.com%3A1337","udp%3A%2F%2Ftracker.coppersurfer.tk%3A6969","udp%3A%2F%2Fexodus.desync.com%3A6969"],"infoHash":"28f03444434655d7e7ef5bcde29957c2153579a2","infoHashBuffer":{"type":"Buffer","data":[40,240,52,68,67,70,85,215,231,239,91,205,226,153,87,194,21,53,121,162]},"announce":[],"urlList":[]}}